<?xml version="1.0" encoding="UTF-8"?><svg id="Layer_2" xmlns="http://www.w3.org/2000/svg" viewBox="0 0 365.31 121.23"><defs><style>.cls-1{fill:#e1e2e4;}</style></defs><g id="Layer_1-2"><g id="pIh6WO"><path class="cls-1" d="m351.05,121.07c-.83-.37-1.69-.69-2.48-1.13-1.63-.92-2.86-2.27-3.72-3.9-1.99-3.77-3.92-7.58-5.85-11.38-2.09-4.13-4.15-8.29-6.23-12.43-.24-.48-.52-.94-.86-1.55-.56,1.12-1.03,2.04-1.49,2.96-4,7.98-8.03,15.94-11.98,23.94-.58,1.17-1.27,1.6-2.59,1.59-6.31-.06-12.62,0-18.93,0-.1,0-.2-.03-.43-.06.21-.36.39-.66.55-.97,5.08-10.09,10.15-20.19,15.24-30.27,2.1-4.16,4.25-8.29,6.4-12.43.43-.84.49-1.57.02-2.45-2.4-4.57-4.76-9.16-7.1-13.76-3.77-7.43-7.51-14.88-11.26-22.33-.59-1.17-1.17-2.35-1.8-3.62h.82c6.31,0,12.62.02,18.93-.02.93,0,1.42.32,1.81,1.1,2.45,4.89,4.95,9.75,7.4,14.64,1.48,2.95,2.92,5.93,4.45,9.02.35-.78.64-1.46.97-2.13,3.24-6.41,6.48-12.83,9.73-19.24.47-.92.94-1.86,1.49-2.73.19-.3.65-.62.98-.63,6.58-.04,13.16-.03,19.73-.02.1,0,.21.03.44.06-.42.85-.8,1.66-1.2,2.46-1.88,3.69-3.78,7.36-5.64,11.06-3.19,6.36-6.33,12.75-9.51,19.11-1.23,2.45-2.52,4.86-3.8,7.28-.35.67-.38,1.25,0,1.98,2.92,5.69,5.8,11.41,8.69,17.12,2,3.94,4.04,7.85,5.99,11.81.81,1.65,1.61,3.35,2.05,5.12.61,2.44.45,4.93-.74,7.25-1.16,2.24-3.11,3.49-5.45,4.22-.2.06-.45-.04-.63.04-.24.1-.43.3-.64.46h-2.42c-.05-.08-.1-.24-.15-.24-.27,0-.54.05-.81.08Z"/><path class="cls-1" d="m351.05,121.07c.27-.03.54-.07.81-.08.05,0,.1.16.15.24h-.97s-.03-.07-.04-.11c0-.02.03-.03.05-.05Z"/><path class="cls-1" d="m269.56,118.98v-8.11c-.92.87-1.8,1.67-2.63,2.51-2.69,2.69-5.83,4.58-9.59,5.35-2.24.45-4.5.54-6.8.29-2.22-.24-4.44-.46-6.54-1.19-6.96-2.42-12.2-6.93-15.95-13.22-2.48-4.15-4.2-8.6-5.21-13.32-.48-2.22-.93-4.44-1.29-6.68-.18-1.12-.15-2.27-.18-3.41-.07-3.31-.2-6.61-.14-9.92.04-1.99.29-3.99.62-5.96.45-2.64.89-5.3,1.65-7.86,2.25-7.58,5.9-14.34,12.05-19.57,2.75-2.33,5.9-3.93,9.28-5.07,3.39-1.14,6.9-1.3,10.47-1.03,5.19.38,9.53,2.46,13.17,6.1.07.07.17.13.28.21.64-1.56,1.21-3.13,1.93-4.63,1.27-2.68,3.51-4.07,6.4-4.54,2.2-.36,4.32-.1,6.33.81,2.51,1.14,4.13,3.11,4.79,5.75.33,1.31.48,2.69.48,4.04.08,26.21.13,52.42.18,78.63,0,.29,0,.57,0,.94h-19.16s-.09-.08-.14-.12Zm-29.03-42.9c-.15,2.84.03,6.56.8,10.24.74,3.52,1.9,6.88,3.98,9.84,2.6,3.71,5.98,6.03,10.78,5.84,2.49-.1,4.57-1,6.43-2.55,2.46-2.04,4.06-4.68,5.23-7.6,1.05-2.62,1.75-5.32,1.95-8.15.13-1.81.55-3.6.6-5.4.07-2.42-.13-4.84-.12-7.26,0-2.81-.45-5.54-1.13-8.25-.63-2.53-1.19-5.09-2.59-7.34-2.59-4.2-6.02-6.92-11.33-6.64-3.27.17-5.99,1.34-8.21,3.67-2.59,2.72-4.1,6.06-5.06,9.62-.61,2.26-1.05,4.59-1.29,6.91-.21,2.04-.04,4.11-.04,7.07Z"/><path class="cls-1" d="m48.34,120.83c-.97,0-1.94-.02-2.91-.03-3.52-.51-5.78-2.55-7.08-5.77-.6-1.51-.81-3.08-.81-4.69,0-23.38,0-46.76,0-70.15,0-.93.55-1.39,1.22-1.81,3.51-2.18,7.02-4.35,10.54-6.52,2.26-1.4,4.54-2.78,6.9-4.23v16.55c.69-.89,1.21-1.6,1.76-2.28,1.71-2.13,3.62-4.05,5.92-5.56,2.58-1.7,5.34-2.96,8.43-3.4,1.17-.17,2.37-.35,3.55-.3,4.28.17,8.47.77,12.22,3.06,3.06,1.86,5.21,4.46,6.53,7.8.85,2.16,1.16,4.37,1.28,6.67.66,12.31.18,24.62.28,36.93.09,10.27.02,20.55.02,30.82v1.19h-18.2c-.06-.03-.13-.07-.19-.1-.03-.44-.09-.87-.09-1.31,0-21.64,0-43.27,0-64.91,0-1.15,0-2.3,0-3.45-.02-.11-.03-.22-.05-.33-.6.25-1.24.42-1.78.75-6.31,3.75-12.61,7.53-18.91,11.3-.5.3-.76.66-.76,1.33.03,15.48.05,30.96-.02,46.44-.01,2.21.05,4.51-.95,6.61-1.4,2.94-3.61,4.86-6.9,5.41Z"/><path class="cls-1" d="m138.07,120.79c-.91,0-1.82,0-2.73,0-.92,0-1.84-.01-2.76-.02-4.49.12-8.72-1.08-12.72-2.94-4.23-1.96-8.03-4.59-10.81-8.44-1.53-2.12-2.57-4.46-2.23-7.17.4-3.23,2.06-5.96,5.56-7.06,1.36-.43,2.95-.18,4.44-.14,2.94.08,4.99,1.87,6.97,3.74,2.31,2.18,4.87,3.98,7.95,4.85,3.47.98,6.76.59,9.72-1.62,2.07-1.54,3.01-3.65,3.03-6.17,0-1.24-.11-2.5-.34-3.71-.46-2.4-2.11-3.99-3.98-5.37-2.54-1.87-5.5-2.91-8.41-4.04-6.22-2.41-12.15-5.32-16.74-10.36-2.89-3.18-4.94-6.81-5.61-11.1-.29-1.89-.56-3.84-.46-5.74.19-3.71,1.25-7.22,3.11-10.48,2.55-4.47,6.2-7.75,10.75-10.07,2.9-1.48,5.96-2.49,9.21-2.8,1.48-.14,2.98-.22,4.47-.16,3.75.17,7.48.45,11.14,1.5,4.43,1.27,8.29,3.51,11.93,6.22.14.11.19.54.1.72-2.28,4.16-4.58,8.31-6.89,12.46-.17.3-.37.57-.63.98-.68-.5-1.38-.95-2.01-1.47-2.48-2.02-5.26-3.48-8.44-3.85-2.08-.24-4.25-.36-6.3-.03-3.14.51-5.39,2.42-6.65,5.41-1.18,2.79-.66,5.3,1.21,7.58,1.86,2.26,4.32,3.72,6.91,4.96,4.55,2.18,9.15,4.25,13.69,6.44,4.05,1.95,7.43,4.71,9.8,8.58,1.45,2.37,2.3,4.99,2.64,7.71.31,2.44.48,4.93.32,7.38-.32,4.76-1.59,9.28-4.49,13.19-2.88,3.87-6.61,6.67-11.05,8.59-2.25.97-4.54,1.74-6.95,2.15-.91.15-1.84.18-2.76.27Z"/><path class="cls-1" d="m182.32,119.02c-.03-.55-.08-1.1-.08-1.65,0-21.5,0-43.01,0-64.51,0-1.28-.03-2.56-.04-3.84-.05-.02-.11-.05-.16-.07-3.25.02-6.5.19-9.74.01-3.53-.19-6.3-1.86-7.57-5.29-1.31-3.54.32-7.51,3.54-9.24,1.56-.84,3.18-1.22,4.95-1.18,2.68.06,5.37.02,8.05.02.29,0,.58,0,.96,0,0-.4,0-.71,0-1.02,0-2.7,0-5.4,0-8.11,0-.91.3-1.52,1.14-2,5.21-3.02,10.39-6.1,15.58-9.16.86-.51,1.73-.99,2.71-1.56v21.81h15.38v15.49h-15.18v70.39c-6.41,0-12.71,0-19.01,0-.18-.03-.36-.06-.53-.09Z"/><path class="cls-1" d="m1.34,118.98c.02-22.2.03-44.39.04-66.59,0-2.53.06-5.07-.13-7.59-.14-1.92-.17-3.79.37-5.63,1.1-3.77,3.43-6.6,7.37-7.26,4.5-.75,9.21.79,10.84,6.17.47,1.56.72,3.25.72,4.88.05,23.59.04,47.18.03,70.77,0,1.62-.06,3.24-.15,4.86,0,.19-.35.52-.54.52-6.15.01-12.29,0-18.44-.02-.04-.04-.08-.07-.12-.11Z"/><path class="cls-1" d="m10.48,21.54C5.01,21.72.24,16.67.01,11.39-.28,4.61,5.26.24,9.82.02c7.65-.38,11.9,4.95,11.94,10.71.04,5.94-4.46,11.05-11.29,10.81Z"/><path class="cls-1" d="m182.32,119.02c.18.03.36.06.53.09-.18-.03-.36-.06-.53-.09Z"/><path class="cls-1" d="m77.66,49c.02.11.03.22.05.33-.02-.11-.03-.22-.05-.33Z"/><path class="cls-1" d="m182.04,48.94c.05.02.11.05.16.07-.05-.02-.11-.05-.16-.07Z"/><path class="cls-1" d="m1.34,118.98s.08.07.12.11c-.04-.04-.08-.07-.12-.11Z"/><path class="cls-1" d="m77.79,119c.06.03.13.07.19.1-.06-.03-.13-.07-.19-.1Z"/><path class="cls-1" d="m269.56,118.98s.09.08.14.12c-.05-.04-.09-.08-.14-.12Z"/></g></g></svg>