<?xml version="1.0" encoding="utf-8"?>
<!-- Generator: Adobe Illustrator 27.9.0, SVG Export Plug-In . SVG Version: 6.00 Build 0)  -->
<svg version="1.1" id="a" xmlns="http://www.w3.org/2000/svg" xmlns:xlink="http://www.w3.org/1999/xlink" x="0px" y="0px"
	 viewBox="0 0 1718.7 372.3" style="enable-background:new 0 0 1718.7 372.3;" xml:space="preserve">
<style type="text/css">
	.st0{fill:#FFFFFF;}
</style>
<path class="st0" d="M13.7,288.1c8.5-22.5,16.2-42.7,25.1-66.2c11.2,16.3,21.6,29.7,30,44.4c4.6,8-8.5,20.7-18.4,21.7
	c-2.1,0.2-4.3,0.2-6.5,0.2C35,288.1,26,288.1,13.7,288.1L13.7,288.1z"/>
<path class="st0" d="M276.1,288.2V0.2h46.3v288H276.1z"/>
<path class="st0" d="M76.5,126.8L121,0.2h50.4l76.7,288h-32.5c-9.3-3.8-15.3-10.4-17.9-19.4c-14.2-48.6-57.1-192.5-57.1-192.5
	l-35.1,94.5L76.5,126.8L76.5,126.8z"/>
<path class="st0" d="M0,130.1h59.7l38.9,57.5c43.7-49.6,100.2-63.7,165.6-52.9C200.8,154.1,140.9,191.3,86.4,255L0,130.1z"/>
<g>
	<path class="st0" d="M370.9,288.9V88.8h46.3v200.1H370.9z"/>
	<ellipse class="st0" cx="394.1" cy="29" rx="29.3" ry="28.6"/>
</g>
<polygon class="st0" points="466.9,0 630,0 630,40.2 511.1,40.2 511.1,113 630,113 630,152.6 511.1,152.6 511.1,247.2 644.4,247.2 
	614.4,288.4 466.9,288.5 "/>
<polygon class="st0" points="646.2,88.3 698.5,88.3 741,150 783.8,88.3 837.9,88.3 768.5,189.2 837.9,289.5 782.6,288.4 
	741.5,229.8 699.7,288.4 645,288.4 714.9,188.9 "/>
<path class="st0" d="M966.8,83.2c-24.1,0-43.5,10.8-59.6,28.4V88.3h-47.6v284h47.6V265.6c16.2,18.4,34.4,22.8,59.4,22.8
	c49.7,0,93.6-43.1,93.6-101S1016.5,83.1,966.8,83.2L966.8,83.2z M960.1,248c-30.8,0-55.7-26.7-55.7-62s25-63.2,55.8-63.2
	s57.9,28.2,57.9,63.6S990.9,248,960.1,248L960.1,248z"/>
<path class="st0" d="M1121.2,179.9c0-29.4,26.4-61.5,66.7-57.4c4.9-8.8,17.3-23.7,29.8-30.5c-37.5-12.8-65.8-8.4-96.5,17l0-20.7h-45
	l0,200h45L1121.2,179.9L1121.2,179.9z"/>
<path class="st0" d="M1327.5,235.7c-10.3,9.2-24,14.8-38.9,14.8c-26.1,0-49.6-19.1-57.2-42.6h152.9c2.3-76.9-40.9-118.2-95.7-118.2
	s-99.1,44.8-99.1,100s44.3,100,99.1,100c38.2,0,71.4-21.9,87.9-54H1327.5z M1287.2,130.9c26.1,0,48.2,17,55.8,40.6h-111.7
	C1239,147.9,1261.1,130.9,1287.2,130.9L1287.2,130.9z"/>
<path class="st0" d="M1507.7,142.1h40.4c0-65-150.4-78.1-150.4,9c0,65.8,113.1,42.5,112.5,75.5c-0.5,29.5-64.2,26.1-73.5,7.2h-41.3
	c15.6,79,156.8,67.1,156.8-4.1c0-78.9-112.8-40.4-114.3-80.9C1436.6,116.2,1497,118.7,1507.7,142.1L1507.7,142.1z"/>
<path class="st0" d="M1674.3,142.1h40.4c0-65-150.4-78.1-150.4,9c0,65.8,113.1,42.5,112.5,75.5c-0.5,29.5-64.2,26.1-73.5,7.2h-41.3
	c15.6,79,156.8,67.1,156.8-4.1c0-78.9-112.8-40.4-114.3-80.9C1603.2,116.2,1663.6,118.7,1674.3,142.1L1674.3,142.1z"/>
</svg>
