<?xml version="1.0" encoding="utf-8"?>
<!-- Generator: Adobe Illustrator 27.9.0, SVG Export Plug-In . SVG Version: 6.00 Build 0)  -->
<svg version="1.1" id="Layer_1" xmlns="http://www.w3.org/2000/svg" xmlns:xlink="http://www.w3.org/1999/xlink" x="0px" y="0px"
	 viewBox="0 0 54 24" style="enable-background:new 0 0 54 24;" xml:space="preserve">
<style type="text/css">
	.st0{fill-rule:evenodd;clip-rule:evenodd;fill:#FFFFFF;}
</style>
<g>
	<path class="st0" d="M7.9,2.6c0.9,1.3,2,2,2,2S9.6,3.3,8.7,2c-0.9-1.3-2-2-2-2S7,1.3,7.9,2.6L7.9,2.6z M3.1,12.4
		c1.6,0,2.9-0.5,2.9-0.5s-1.3-0.5-2.9-0.5s-2.9,0.5-2.9,0.5S1.5,12.4,3.1,12.4z M7,7.8c0,0-1.4-0.2-2.8-0.9S2,5.2,2,5.2
		S3.3,5.3,4.7,6C6.1,6.8,7,7.8,7,7.8z M11.6,13.7c0,0-0.5,0.2-1.3,0.2c0.9,2.7,2.8,5,5.7,5.4c-0.3,0-0.7,0.1-1,0.1
		c-4.2,0-7.6-3.3-7.6-7.4c0-4.1,3.4-7.4,7.5-7.5c0.4,0,0.7,0,1.1,0.1C12.6,5,10.4,7.7,9.9,11C9.8,13.1,11.6,13.7,11.6,13.7
		L11.6,13.7z M9.9,19.2c0,0-1.1,0.8-2,2c-0.9,1.3-1.2,2.6-1.2,2.6s1.1-0.8,2-2C9.6,20.5,9.9,19.2,9.9,19.2L9.9,19.2z M4.3,16.9
		C5.7,16.2,7,16,7,16s-0.9,1-2.3,1.8C3.3,18.5,2,18.7,2,18.7S2.9,17.6,4.3,16.9L4.3,16.9z"/>
	<path class="st0" d="M34.1,12.7c0.6-0.6,0.9-1.4,0.9-2.4c0-1-0.3-1.9-0.9-2.5c-0.6-0.6-1.5-0.9-2.6-0.9H28v9.8h1.7v-3.1h2
		C32.7,13.6,33.5,13.3,34.1,12.7L34.1,12.7z M31.7,8.5c1.2,0,1.7,0.6,1.7,1.8c0,0.6-0.2,1-0.5,1.3c-0.3,0.3-0.7,0.5-1.3,0.5h-2V8.5
		L31.7,8.5L31.7,8.5z M18.5,7h-1.7v9.8h1.7V7L18.5,7z M52.9,16.9c0.3,0,0.6,0,0.8-0.1h0v-1.3c-0.1,0-0.3,0-0.4,0
		c-0.4,0-0.7-0.1-0.8-0.3c-0.1-0.1-0.2-0.4-0.2-0.8v-3.9h1.4V9.1h-1.4V7h-1.6v7.5c0,0.9,0.1,1.5,0.4,1.8
		C51.4,16.7,52,16.9,52.9,16.9z M24.7,16.7h1.6v-4.9c0-0.8-0.2-1.5-0.7-1.9c-0.5-0.5-1.1-0.7-1.8-0.7c-1.8,0-3.8,0.4-3.8,0.4v7.2
		h1.6v-6c0.6-0.1,1.3-0.2,1.8-0.2c0.8,0.1,1.2,0.6,1.2,1.6L24.7,16.7L24.7,16.7z M42.7,12.9c0,1.2-0.3,2.1-1,2.8
		c-0.7,0.7-1.5,1.1-2.6,1.1c-1,0-1.9-0.4-2.6-1.1c-0.7-0.7-1-1.7-1-2.8c0-1.2,0.3-2.1,1-2.8C37.3,9.3,38.1,9,39.2,9
		c1.1,0,1.9,0.4,2.6,1.1C42.4,10.7,42.7,11.7,42.7,12.9z M41,12.9c0-0.7-0.2-1.3-0.5-1.7c-0.3-0.4-0.8-0.6-1.4-0.6s-1,0.2-1.4,0.7
		c-0.3,0.4-0.5,1-0.5,1.7c0,0.7,0.2,1.3,0.5,1.7c0.3,0.4,0.8,0.6,1.4,0.6s1-0.2,1.4-0.6C40.9,14.2,41,13.6,41,12.9z M48.9,16
		c0.6-0.5,0.9-1.1,0.9-1.8c0-1.1-0.7-1.8-2.1-2.1c-0.6-0.1-1.2-0.2-1.8-0.3c-0.4-0.1-0.7-0.3-0.7-0.6c0-0.5,0.5-0.8,1.4-0.8
		c0.7,0,1.4,0.3,2,0.8l1-1C48.7,9.4,47.8,9,46.6,9c-0.9,0-1.7,0.2-2.3,0.7c-0.6,0.4-0.8,1-0.8,1.7c0,0.7,0.2,1.2,0.7,1.5
		c0.4,0.3,1.1,0.5,2,0.6c0.8,0.1,1.2,0.2,1.4,0.3c0.3,0.1,0.5,0.3,0.5,0.6c0,0.3-0.1,0.5-0.4,0.7c-0.3,0.2-0.6,0.3-1.1,0.3
		c-0.8,0-1.5-0.3-2.1-0.9l-1.2,1c0.8,0.9,1.9,1.3,3.4,1.3C47.6,16.7,48.3,16.5,48.9,16L48.9,16z"/>
</g>
</svg>
