<?xml version="1.0" encoding="UTF-8"?><svg id="Layer_2" xmlns="http://www.w3.org/2000/svg" viewBox="0 0 631.67 137.31"><defs><style>.cls-1{fill:#e1e2e4;}</style></defs><g id="Layer_1-2"><g id="eBkXwc.tif"><path class="cls-1" d="m357.53,68.7c19.58-.25,30.27-17.92,23.21-34.95-2.26-5.46-2.24-5.63,3.36-7.83,8.67-3.41,16.86-2.57,23.87,3.74,7.18,6.47,9.62,14.58,6.91,24.01-2.85,9.94-9.4,17.32-16.92,23.98-7.15,6.33-15.15,11.44-23.53,15.99-1.14.62-2.06.86-3.31.17-12.6-6.98-24.49-14.87-33.52-26.33-4.04-5.12-6.95-10.77-7.96-17.31-1.57-10.09,4.27-20.47,13.96-24.56,8.91-3.77,20.77-.69,26.65,7.08,4.45,5.87,5.24,12.38,2.35,19.12-4.36,10.18-18.35,10.68-23.06,3.75-1.57-2.31-3.8-2.93-6.24-1.23-2.13,1.49-2.25,4.14-.31,6.62,4.2,5.36,9.85,7.74,14.53,7.73Z"/><path class="cls-1" d="m622.15,83.34c-15.46,13.88-35.78,10.84-46.82-1.74-5.25-5.98-7.93-12.99-8.01-20.89-.12-11.66-.06-23.32-.02-34.98,0-3.53.55-3.91,4.78-3.91,4.21,0,4.72.39,4.73,3.95.03,11.77-.15,23.54.08,35.31.3,15.78,16.2,26.19,30.93,20.46,8.48-3.3,14.27-11.61,14.32-20.82.07-11.55,0-23.1.02-34.65,0-3.95.34-4.23,4.71-4.24,4.41,0,4.76.27,4.76,4.17,0,26.37.07,52.74-.02,79.12-.06,16.75-12.4,30.17-29.1,31.94-16.06,1.7-31.09-9.51-34.52-25.74-.11-.53-.24-1.08-.24-1.61.03-1.55-1.09-3.54.68-4.52,2.16-1.2,4.68-.93,6.99-.17,1.5.49,1.37,2.05,1.62,3.32,2.11,10.57,9.48,17.86,19.29,19.12,12.9,1.66,24.52-6.99,25.68-19.87.7-7.85.13-15.8.13-24.23Z"/><path class="cls-1" d="m272.15,28.33c5.92-4.99,12.14-7.35,19.23-7.93,16.64-1.37,30,9.86,30.48,26.5.39,13.62.07,27.25.17,40.88.02,3.68-2.37,3.52-4.88,3.54-2.5.02-4.58-.12-4.55-3.53.09-12.1.02-24.2.04-36.3,0-2.74-.17-5.47-.78-8.12-2.76-12.02-13.32-15.29-23.75-13.03-10.2,2.21-15.85,9.72-15.93,20.32-.1,12.1-.02,24.2-.03,36.3,0,3.91-.49,4.34-4.67,4.34-4.17,0-4.7-.46-4.7-4.33,0-27.58,0-55.16,0-82.74,0-3.9.4-4.23,4.76-4.23,4.27,0,4.61.31,4.61,4.33.01,7.73,0,15.46,0,24Z"/><path class="cls-1" d="m433.95,28.22c5.79-4.91,12.02-7.24,19.12-7.83,16.61-1.37,29.98,9.9,30.44,26.53.38,13.61.07,27.24.16,40.86.02,3.68-2.39,3.5-4.9,3.53-2.51.02-4.56-.14-4.54-3.54.09-12.1.03-24.19.03-36.29,0-3.06-.27-6.07-1.04-9.06-2.73-10.69-12.86-14.42-23.47-12.1-10.19,2.22-15.86,9.72-15.94,20.31-.1,12.1-.02,24.19-.03,36.29,0,3.95-.47,4.37-4.63,4.37-4.21,0-4.73-.44-4.73-4.3-.01-20.05,0-40.1,0-60.16,0-4.54.21-4.78,4.11-4.81q5.16-.04,5.27,4.6c0,.32.06.63.15,1.59Z"/><path class="cls-1" d="m0,45.52c0-13.62,0-27.24,0-40.87C0,.62.66,0,4.79,0c4.14,0,4.74.56,4.74,4.71,0,24.52.06,49.04-.07,73.56-.01,2.88.69,3.62,3.59,3.58,14.01-.16,28.02-.08,42.03-.07,4.21,0,4.62.44,4.62,4.73,0,4.23-.51,4.78-4.63,4.78-16.86.01-33.71.01-50.57,0-3.94,0-4.51-.59-4.51-4.57,0-13.73,0-27.46,0-41.19Z"/><path class="cls-1" d="m156.09,75.56c3.27-8.44,6.37-16.42,9.45-24.4,3.33-8.62,6.63-17.26,9.95-25.88,1.16-3.01,6.63-4.64,9.26-2.78,1.88,1.33.88,2.91.31,4.39-5.52,14.3-11.06,28.6-16.59,42.9-2.35,6.09-4.78,12.15-6.98,18.29-.95,2.64-2.59,3.35-5.23,3.29-2.58-.06-4.54-.26-5.64-3.18-7.85-20.63-15.86-41.21-23.78-61.81-1.17-3.04-.31-4.24,2.91-4.34q5.55-.17,7.52,4.97c5.87,15.22,11.74,30.44,17.62,45.66.31.8.66,1.59,1.21,2.91Z"/><path class="cls-1" d="m19.03,112.64c8.1-3.56,12.96-.37,12.99,8.11.01,2.29.15,4.59-.06,6.86-.12,1.3,1.26,3.51-1.74,3.61-3.02.1-1.82-2.12-1.9-3.44-.16-2.83-.08-5.67-.05-8.5.03-2.87-1.37-4.59-4.2-4.85-2.72-.25-4.91,1.92-5.02,4.9-.11,3.27-.04,6.54-.03,9.81,0,1.14.06,2.09-1.63,2.11-1.71.02-1.98-.76-1.97-2.18.04-7.41.04-14.82,0-22.23,0-1.34.36-1.94,1.84-1.97,1.55-.03,1.84.65,1.78,1.97-.07,1.85-.02,3.7-.02,5.81Z"/><path class="cls-1" d="m88.57,117.36c-1.72.25-3.34.69-4.4-1.42-.56-1.12-1.92-1.45-3.13-1.48-1.77-.05-3.97.04-4.34,2.03-.44,2.38,2.05,1.95,3.45,2.37,1.66.5,3.4.75,5.08,1.21,2.22.61,3.56,2.11,3.8,4.4.23,2.19-.55,4.05-2.32,5.45-3.67,2.9-12.94,2.42-14.38-4.33,1.8-.24,3.24-.45,4.8,1.23,1.79,1.94,4.34,1.69,6.71.72.98-.4,1.61-1.09,1.61-2.23,0-1.22-.81-1.74-1.82-1.97-2.02-.47-4.07-.77-6.06-1.31-2.4-.66-4.58-1.67-4.7-4.66-.13-3.09,1.62-4.81,4.33-5.78,5.42-1.94,10.26.48,11.38,5.78Z"/><path class="cls-1" d="m211.12,112.29c1.08.34,1.62-.39,2.3-.65,5.23-1.97,10.23,1.06,10.56,6.62.22,3.68.01,7.39.09,11.09.03,1.39-.41,1.9-1.86,1.89-1.58-.01-1.76-.82-1.75-2.06.03-3.15.07-6.31-.02-9.46-.11-3.46-1.78-5.37-4.45-5.32-2.91.06-4.74,2.03-4.84,5.43-.1,3.15-.06,6.31-.01,9.46.02,1.34-.38,1.93-1.85,1.95-1.57.02-1.76-.74-1.75-2,.03-7.5.04-15.01-.01-22.51,0-1.42.47-1.86,1.88-1.87,1.58-.01,1.76.81,1.73,2.04-.05,1.81-.01,3.63-.01,5.38Z"/><path class="cls-1" d="m395.63,117.36c-1.58.22-3.17.75-4.14-1.31-.49-1.04-1.68-1.41-2.77-1.52-2.01-.21-4.47-.21-4.83,2.12-.34,2.17,2.15,1.86,3.64,2.24,1.79.45,3.67.69,5.37,1.36,3.38,1.33,4.52,5.11,2.44,8.1-2.21,3.17-5.53,3.58-9.05,3.08-3.4-.49-5.81-2.18-6.74-5.8,1.95-.36,3.31-.35,4.81,1.21,1.78,1.86,4.34,1.71,6.72.68.98-.43,1.63-1.2,1.61-2.25-.01-1.13-.87-1.71-1.89-1.94-1.91-.44-3.84-.79-5.74-1.24-2.58-.61-4.91-1.7-5.03-4.74-.12-3.15,1.82-4.89,4.69-5.88,4.19-1.43,11.09.51,10.92,5.9Z"/><path class="cls-1" d="m374.16,117.37c-1.88.31-3.34.48-4.35-1.43-.7-1.32-2.34-1.61-3.78-1.5-1.64.11-3.67.38-3.79,2.36-.1,1.79,1.92,1.7,3.23,2.03,1.8.45,3.67.66,5.41,1.27,4.32,1.51,5.19,6.67,1.71,9.64-3.54,3.03-10.53,2.35-13.33-1.33-.62-.81-1.83-1.97-.85-2.74.83-.65,2.61-.83,3.55.39,1.66,2.15,3.86,2.29,6.2,1.93,1.47-.22,2.84-.9,2.94-2.58.11-1.72-1.44-2.04-2.67-2.36-1.79-.46-3.67-.6-5.46-1.1-2.29-.64-4.33-1.68-4.46-4.51-.14-2.92,1.39-4.71,3.95-5.75,4.86-1.97,11.75.37,11.69,5.67Z"/><path class="cls-1" d="m312.58,120.88c0-2.39.14-4.79-.04-7.17-.16-2.14,1.23-2.75,2.51-2.01,1.53.88,2.48.37,3.77-.12,4.72-1.82,9.5.89,10.11,6.08.46,3.97.14,8.03.23,12.05.03,1.44-.8,1.51-1.89,1.52-1.14,0-1.88-.22-1.86-1.59.04-3.26.05-6.52,0-9.79-.05-3.56-1.49-5.34-4.27-5.43-2.94-.09-4.91,2.09-4.97,5.63-.05,2.83.03,5.65-.03,8.48-.03,1.15.61,2.67-1.66,2.72-2.46.06-1.85-1.59-1.87-2.87-.05-2.5-.02-5-.02-7.5Z"/><path class="cls-1" d="m156.46,121.7c0,2.5-.12,5.01.04,7.51.13,1.97-1.37,2.68-2.28,1.87-1.82-1.6-3.01-.17-4.43.21-4.85,1.29-9.28-1.48-9.72-6.48-.34-3.89-.06-7.83-.15-11.74-.03-1.45.74-1.51,1.84-1.52,1.14,0,1.88.2,1.86,1.58-.05,3.26-.06,6.53,0,9.79.07,3.62,1.47,5.27,4.36,5.27,2.96,0,4.77-1.89,4.89-5.33.1-2.93.03-5.88.03-8.81,0-1.3-.29-2.57,1.86-2.54,2.27.03,1.66,1.52,1.69,2.68.06,2.5.02,5.01.02,7.51Z"/><path class="cls-1" d="m134.27,130.93c-6.23,1.59-6.04-4.5-9.02-6.56-3.02,1.99-2.84,8.25-9.1,6.52,1.93-2.78,3.69-5.49,5.64-8.05,1.04-1.36.99-2.33-.04-3.67-1.77-2.29-3.32-4.75-5.02-7.24,5.71-1.87,5.77,3.57,8.48,5.73,2.78-1.69,2.74-7.78,8.55-5.72-1.79,2.58-3.45,5.11-5.26,7.52-.86,1.14-.87,1.95,0,3.11,1.98,2.66,3.8,5.45,5.79,8.35Z"/><path class="cls-1" d="m7.78,131.21c-3.23-.28-5.6-2.79-5.82-6.38-.13-2.16.07-4.35-.08-6.51-.09-1.27.99-3.24-1.58-3.46-.07,0-.13-.17-.19-.26-.37-.6,1.98-6.95,2.68-7.01,1.23-.11,2.86-.55,2.63,1.65-.19,1.87.6,2.58,2.43,2.34,1.19-.15,2.08-.03,2.05,1.62-.02,1.44-.49,2.03-1.89,1.79-2.38-.41-2.72.9-2.61,2.83.12,1.95-.01,3.91.06,5.86.08,1.97.61,3.74,2.99,3.98,1.63.16,1.47,1.24,1.44,2.34-.04,1.59-1.19,1.2-2.12,1.2Z"/><path class="cls-1" d="m511.24,118.21c0-3.8.04-7.61-.02-11.41-.02-1.35.34-1.98,1.82-1.94,1.29.04,2.03.28,2.02,1.8-.05,7.61-.05,15.21,0,22.82,0,1.54-.75,1.72-2.03,1.77-1.53.06-1.82-.64-1.8-1.96.06-3.69.02-7.39.02-11.08Z"/><path class="cls-1" d="m185.9,117.77c0-3.58.03-7.16-.02-10.74-.02-1.35.08-2.23,1.86-2.19,1.76.04,1.89.95,1.88,2.29-.03,7.27-.04,14.53,0,21.8.01,1.56-.29,2.37-2.14,2.35-2.03-.03-1.57-1.35-1.58-2.44-.03-3.69-.01-7.37-.01-11.06Z"/><path class="cls-1" d="m302.5,121.41c0-2.61.07-5.21-.03-7.82-.06-1.56.5-2.05,2.06-2.08,1.64-.03,1.69.81,1.69,2.02-.03,5.21-.02,10.42,0,15.63,0,1.13.09,2.12-1.62,2.1-1.53-.02-2.17-.46-2.12-2.04.09-2.6.02-5.21.02-7.82Z"/><path class="cls-1" d="m555.63,114.88c-.87-1.4-.07-3.08-.53-4.63-1.08.76-.96,2.08-1.53,3.03-.36.6-.25,1.61-1.31,1.62-1.08,0-1-1-1.3-1.62-.45-.95-.77-1.96-1.28-3.28-.78,1.77.17,3.57-1.27,5.64-.81-3.22-.36-5.76-.47-8.25-.03-.63.26-1.01.94-1.01.62,0,.97.27,1.19.87.66,1.81,1.37,3.59,2.2,5.74.75-1.98,1.36-3.6,1.98-5.21.27-.69.42-1.52,1.47-1.41,1.22.13.84,1.08.86,1.75.04,2.24.02,4.47.02,6.71-.33.02-.65.04-.98.06Z"/><path class="cls-1" d="m543.72,115.29c-2.23-2.69,1.44-7.06-4.06-8.27,2.9-1.03,4.93-.78,8.08-.29-5.37,1.56-2.43,5.54-4.02,8.55Z"/><path class="cls-1" d="m304.47,108.37c-1.57.29-1.71-.64-1.73-1.9-.02-1.39.69-1.53,1.82-1.59,1.57-.08,1.72.73,1.75,1.99.03,1.41-.68,1.65-1.85,1.5Z"/><path class="cls-1" d="m198.07,58.82c8.75.17,17.51.06,26.27.06,8.76,0,17.52.02,26.27,0,3.51-.01,4.29-.82,3.98-4.28-.2-2.27-.5-4.55-1.02-6.77-5.15-21.9-28.71-33.64-48.21-24.08-16.59,8.14-24.41,28.19-17.89,45.9,6.27,17.06,24.31,26.4,42.46,22.05,9.8-2.35,16.76-8.08,21.11-17.07.68-1.41,1.4-2.83-.12-4.13-1.87-1.59-7.92-.68-9.1,1.51-5.25,9.77-16.41,12.69-26.66,10.71-10.12-1.95-18.22-10.54-20-20.6-.46-2.59.21-3.36,2.92-3.31Zm22.15-28.93c11.07.11,21.99,9.07,23.66,19.51h-47.86c1.87-10.9,12.71-19.62,24.2-19.51Z"/><path class="cls-1" d="m503.25,58.82c8.86.14,17.73.06,26.6.06,8.87,0,17.73-.06,26.6.04,2.9.03,3.93-1.17,3.72-3.94-.24-3.27-.69-6.49-1.72-9.61-5.89-17.72-23.19-28.18-40.07-24.21-18.11,4.26-30.34,22.58-27.27,40.87,3.31,19.77,19.62,32.51,39.16,30.54,12-1.21,20.98-6.91,26.31-17.89.67-1.39,1.45-2.81-.07-4.15-1.84-1.62-7.89-.74-9.09,1.45-5.57,10.15-16.98,12.74-26.97,10.68-10.2-2.1-18.23-10.83-19.75-20.81-.33-2.2.06-3.07,2.56-3.03Zm21.07-28.92c10.84-.47,21.43,6.95,24.79,17.34.46,1.42.77,2.32-1.46,2.31-15.31-.09-30.62-.05-46.19-.05,2.56-11.06,12.11-19.14,22.85-19.6Z"/><path class="cls-1" d="m123.7,42.02c-7.21-16.4-24.08-25.23-40.38-20.46-15.34,4.48-23.57,15.43-25.9,30.92-3.11,20.67,13.8,40.28,34.58,40.2,2.75.06,5.45-.34,8.1-1.04,21.33-5.56,32.58-29.22,23.61-49.63Zm-32.99,41.49c-12.7-.5-22.93-11.17-23.99-25-1.15-14.97,9.53-27.8,24.05-28.88,11.4-.85,22.39,7.73,25.47,19.85.59,2.34.85,4.71.82,6.21.06,16.33-11.75,28.4-26.34,27.82Z"/><path class="cls-1" d="m503.88,114.53c-2.9-3.44-7.44-4.42-11.22-2.51-.95.48-1.88,2.49-3.08-.2-.59-1.3-3.1,0-3.11,1.82-.04,7.18.02,14.37-.04,21.55-.01,1.53.43,2.1,2.04,2.11,1.6.01,1.76-.75,1.72-2-.06-1.92-.02-3.84-.02-6.11,1.17.66,1.97,1.17,2.82,1.57,3.78,1.79,8.41.56,11.14-2.92,2.99-3.82,2.89-9.58-.24-13.3Zm-7.19,13.6c-3.5.12-6.47-2.95-6.5-6.74-.03-3.71,2.98-7.04,6.34-7.01,3.24.03,6.1,3.22,6.13,6.85.04,3.73-2.6,6.78-5.97,6.9Z"/><path class="cls-1" d="m294.23,113.58c-3.22-2.94-7.13-3.29-11.14-1.06-.51.28-1.28,1.89-1.75.13-.47-1.77-1.71-1.03-2.6-1-1.36.03-.89,1.27-.89,2.01-.04,7.17,0,14.34-.04,21.51,0,1.43.23,2.17,1.94,2.13,1.64-.04,1.68-.9,1.66-2.08-.04-1.84,0-3.69,0-5.91,2.01.77,3.33,1.94,5.13,2.16,4.3.52,8.19-1.6,10.07-5.67,1.99-4.29,1.06-9.1-2.36-12.22Zm-6.4,14.56c-3.47.03-6.45-3.16-6.41-6.87.04-3.7,3.17-7,6.51-6.87,3.34.13,5.95,3.2,5.92,6.96-.03,3.87-2.58,6.74-6.02,6.77Z"/><path class="cls-1" d="m271.02,114.81c-3.12-3.97-7.44-4.64-12.75-1.89-.79.41-1.18.84-1.4-.52-.22-1.43-1.58-.78-2.41-.77-1.38.01-.96,1.21-.96,1.98-.03,7.17,0,14.35-.04,21.52,0,1.39.15,2.21,1.9,2.18,1.66-.03,1.67-.91,1.65-2.08-.03-1.85,0-3.69,0-5.72.54.05.78,0,.94.1,4.97,2.86,9.34,2.43,12.67-1.28,3.35-3.73,3.53-9.55.41-13.52Zm-7.47,13.32c-3.48.09-6.47-3.02-6.49-6.77-.03-3.66,3.06-7,6.42-6.95,3.31.04,5.99,3.11,6.01,6.88.02,3.85-2.5,6.76-5.93,6.85Z"/><path class="cls-1" d="m431.01,114.43c-3.14-3.62-7.68-4.39-11.78-2-.89.52-1.78,1.94-2.21-.47-.14-.77-1.55-.39-2.38-.32-1.15.11-.84,1.09-.84,1.78-.02,7.28,0,14.57-.03,21.85,0,1.24.15,1.98,1.72,2.03,1.8.05,1.92-.84,1.87-2.2-.07-1.83-.02-3.66-.02-6.08.99.64,1.42.94,1.87,1.2,4.04,2.3,8.83,1.48,11.84-2.01,3.37-3.92,3.35-9.88-.04-13.78Zm-7.39,13.7c-3.44-.03-6.36-3.3-6.26-7.02.09-3.52,3.11-6.72,6.33-6.72,3.43,0,6.22,3.24,6.13,7.11-.09,3.82-2.74,6.66-6.19,6.63Z"/><path class="cls-1" d="m247.13,129.01c0-3.38-.06-6.75-.08-10.13-.03-5.46-2.52-7.91-8.37-7.87-2.49.13-5.14.7-6.92,3.12-.61.83-1.74,2.14-.83,2.84.96.74,2.69.98,3.74-.54,1.29-1.86,3.2-2.17,5.23-1.94,1.5.17,3.4.34,3.38,2.34-.02,1.81-1.82,1.87-3.21,2.1-2.47.41-5.04.27-7.37,1.34-2.21,1.01-3.33,2.79-3.33,5.18,0,2.38,1.07,4.2,3.32,5.16,2.94,1.26,5.93,1.35,8.89.05.99-.44,1.81-1.45,2.73.28.23.43,1.93.4,2.77.09.98-.37.06-1.32.06-2.01Zm-4.04-3.87c-1.08,2.46-3.26,2.95-5.93,2.97-1.61-.06-3.74,0-4-2.45-.28-2.55,1.89-2.79,3.73-3.1,1.28-.22,2.58-.42,3.88-.45.89-.02,1.91-1.32,2.61-.1.53.93.16,2.15-.28,3.14Z"/><path class="cls-1" d="m443.73,122.3c3.93.14,7.87.03,11.81.04,1.3,0,2.29.05,2.09-1.89-.48-4.66-4.11-8.74-8.66-9.37-4.27-.59-8.67,2.1-10.39,6.36-2.16,5.36.46,11.49,5.76,13.48,5.21,1.97,10.39-.2,12.38-5.35-2.02-.41-3.43-.08-4.92,1.25-2.91,2.59-7.73,1.41-9.47-2.05-.77-1.52-1.02-2.58,1.41-2.49Zm-1-5.08c1.34-1.93,3.24-3.08,5.53-2.79,2.46.31,4.34,1.69,5.21,4.63-3.53,0-6.76.01-9.98,0-1.65-.01-1.48-.81-.76-1.84Z"/><path class="cls-1" d="m99.14,122.31c4.04.09,8.09-.03,12.14.05,1.77.04,2.22-.5,1.94-2.29-.84-5.36-5.23-9.31-10.3-9.02-5.1.3-9.26,4.66-9.47,9.95-.2,4.97,3.4,9.53,8.19,10.36,5.18.9,9.09-1.18,10.67-5.75-1.91-.55-3.34-.1-4.92,1.27-3.07,2.66-7.97,1.23-9.58-2.47-.65-1.49-.53-2.14,1.33-2.1Zm-.7-5.18c1.39-1.88,3.28-3.01,5.59-2.69,2.48.34,4.21,1.85,5.2,4.63-3.58,0-6.72-.02-9.87,0-1.76.01-1.83-.71-.92-1.94Z"/><path class="cls-1" d="m42.67,122.3c3.82.15,7.65.03,11.47.04,1.27,0,2.35.09,2.16-1.84-.5-5.04-4.76-9.31-9.66-9.46-4.88-.15-9.17,3.53-9.99,8.57-.84,5.2,2.12,10.18,6.87,11.57,5.16,1.5,9.69-.56,11.89-5.58-2.15-.51-3.62.01-5.2,1.37-2.75,2.37-7.22,1.32-9.07-1.81-1.04-1.77-1.3-2.97,1.52-2.86Zm.3-6.72c1.33-1.01,2.91-1.54,4.59-1.04,1.94.58,4.25,1.75,4.06,3.64-.18,1.83-2.69.51-4.12.87-.41.1-.86.02-1.3.02-.76,0-1.53.06-2.28-.02-1.02-.11-2.58.57-2.94-.47-.47-1.35.99-2.24,1.99-3Z"/><path class="cls-1" d="m525.68,122.31c3.93.09,7.87-.03,11.81.05,1.55.03,2.12-.4,1.99-2.03-.4-4.79-4.68-9.07-9.46-9.29-4.81-.23-9.32,3.48-10.21,8.4-.94,5.16,2.25,10.45,7.1,11.77,5.23,1.42,9.64-.67,11.73-5.62-1.87-.36-3.35-.26-4.96,1.22-2.91,2.67-7.67,1.49-9.49-1.96-.91-1.72-.75-2.58,1.49-2.53Zm4.06-7.88c2.71.03,4.56,1.64,5.57,4.48h-11.56c1.13-2.99,3.17-4.51,5.98-4.48Z"/><path class="cls-1" d="m179.52,129.04c-.04-3.37-.09-6.73-.11-10.1-.03-5.53-2.42-7.92-8.29-7.94-2.33.11-4.9.6-6.71,2.79-.77.93-2.12,2.26-.93,3.27.81.69,2.58.78,3.68-.77,1.34-1.89,3.46-2.13,5.61-1.75,1.4.25,3.09.6,2.94,2.42-.13,1.55-1.74,1.72-3.03,1.94-2.46.41-5.02.29-7.37,1.28-2.36,1-3.61,2.81-3.57,5.33.03,2.5,1.22,4.32,3.67,5.23,2.88,1.07,5.73,1.17,8.56-.08.98-.43,1.76-1.45,2.71.25.41.74,1.93.51,2.77.16.97-.41.08-1.32.07-2.01Zm-4.39-3.22c-1.3,1.91-3.29,2.33-5.46,2.27-1.87-.08-3.96-.05-4.15-2.56-.18-2.36,1.78-2.66,3.53-2.95,1.29-.21,2.59-.48,3.88-.45.98.02,2.15-1.51,2.84-.03.54,1.17.12,2.61-.63,3.72Z"/><path class="cls-1" d="m339.81,122.31c3.93.12,7.87-.04,11.81.06,1.67.04,2.02-.59,1.89-2.12-.53-6.49-7.35-10.88-13.35-8.53-4.28,1.67-6.95,6.32-6.35,11.06.58,4.59,4.21,8.14,8.87,8.69,4.85.57,8.33-1.48,9.96-5.87q-2.81-.27-4.91,1.33c-3.02,2.3-7.49,1.4-9.36-1.89-.94-1.65-1.21-2.81,1.44-2.74Zm4.02-7.87c2.68.06,4.6,1.6,5.48,4.47h-11.45c1.13-2.99,3.15-4.53,5.97-4.47Z"/><path class="cls-1" d="m471.77,111.02c-5.51.02-9.87,4.63-9.86,10.41.02,5.68,4.22,10.04,9.74,10.11,5.67.07,10.01-4.33,10.02-10.15,0-5.76-4.4-10.39-9.9-10.37Zm.26,17.11c-3.62.11-6.38-2.8-6.38-6.74,0-3.74,2.64-6.84,5.95-6.98,3.38-.15,6.37,3.04,6.44,6.88.07,3.7-2.59,6.73-6.01,6.84Z"/></g></g></svg>